<?xml version="1.0" encoding="utf-8"?>
<!-- Generator: Adobe Illustrator 27.5.0, SVG Export Plug-In . SVG Version: 6.00 Build 0)  -->
<svg version="1.1" xmlns="http://www.w3.org/2000/svg" xmlns:xlink="http://www.w3.org/1999/xlink" x="0px" y="0px"
	 viewBox="0 0 500 500" style="enable-background:new 0 0 500 500;" xml:space="preserve">
<g id="BACKGROUND">
	<radialGradient id="SVGID_1_" cx="250" cy="250" r="419.67" gradientUnits="userSpaceOnUse">
		<stop  offset="0" style="stop-color:#FFFFFF"/>
		<stop  offset="0.5664" style="stop-color:#FDFDFD"/>
		<stop  offset="0.8206" style="stop-color:#F6F6F6"/>
		<stop  offset="1" style="stop-color:#EAEAEA"/>
	</radialGradient>
	<rect style="fill:url(#SVGID_1_);" width="500" height="500"/>
</g>
<g id="OBJECTS">
	<g>
		<path style="fill:#616161;" d="M85.443,134.483c0,0,2.798,4.057,9.094,5.176c6.295,1.119,31.477,1.679,46.307,1.679
			c14.829,0,196.278,0,203.926,0c3.918,0,60.904-8.394,65.521-9.513c4.616-1.119,7.694-4.897,7.694-8.394c0-3.498,0-14.991,0-16.135
			c0-1.143-0.978-2.472-2.588-3.032c0,0-1.469-6.505-2.588-8.324c-1.119-1.819-8.324-16.508-12.592-17.208
			c-4.267-0.699-22.897-2.028-22.897-2.028s-41.41-22.103-55.213-23.876c-13.805-1.772-69.904-1.306-87.391,1.072
			c-17.488,2.378-44.302,18.047-66.779,29.519c0,0-47.519,7.415-56.472,8.814c-8.954,1.399-20.146,7.554-23.083,12.171
			c-2.938,4.616-3.987,9.303-4.687,9.933c-0.699,0.629-1.679,1.539-1.679,2.938c0,1.399,0,7.345,0,8.883
			c0,1.539,1.703,2.262,1.703,3.428C83.718,130.752,84.485,133.39,85.443,134.483z"/>
		
			<linearGradient id="SVGID_00000073700593203839355840000012996181464140031361_" gradientUnits="userSpaceOnUse" x1="248.2414" y1="95.4968" x2="251.5308" y2="135.2095">
			<stop  offset="0" style="stop-color:#707070"/>
			<stop  offset="1" style="stop-color:#616161"/>
		</linearGradient>
		<path style="fill:url(#SVGID_00000073700593203839355840000012996181464140031361_);" d="M82.016,117.275c0,1.399,0,7.345,0,8.883
			c0,1.539,1.703,2.262,1.703,3.428c0,1.166,0.767,3.804,1.725,4.896c0,0,2.798,4.057,9.094,5.176
			c6.295,1.119,31.477,1.679,46.307,1.679c14.829,0,196.278,0,203.926,0c3.918,0,60.904-8.394,65.521-9.513
			c4.616-1.119,7.694-4.897,7.694-8.394c0-3.498,0-14.991,0-16.135c0-1.143-0.978-2.472-2.588-3.032c0,0-0.572-2.53-1.273-4.875
			l-331.74,16.475C82.163,116.27,82.016,116.735,82.016,117.275z"/>
		<g>
			<path style="fill:#525252;" d="M170.72,87.989c0.462-1.319-1.493-3.247-3.052-4.527c-0.17,0.027-0.423,0.066-0.746,0.117
				c1.767,1.401,3.61,3.256,3.276,4.21c-0.861,1.304-23.625,5.946-35.854,8.44c-5.563,1.134-9.955,2.03-11.892,2.495
				c-3.118,0.748-8.201,2.141-13.117,3.487c-6.176,1.691-12.009,3.288-13.532,3.503c-2.278,0.321-5.43,0.519-8.37,0.298
				c-0.1,0.181-0.194,0.36-0.288,0.539c0.948,0.08,1.919,0.118,2.88,0.118c2.137,0,4.221-0.171,5.857-0.401
				c1.556-0.22,7.407-1.822,13.601-3.518c4.912-1.345,9.991-2.736,13.1-3.482c1.928-0.463,6.317-1.358,11.874-2.491
				C158.159,91.943,170.276,89.256,170.72,87.989z"/>
			<path style="fill:#525252;" d="M315.541,64.203c-12.275-4.834-26.807-7.084-45.729-7.084c-6.264,0-20.77,1.396-33.032,5.142
				c-4.339,1.326-29.451,12.626-37.192,17.755c-0.877,0.581-1.759,1.149-2.636,1.714c-6.666,4.296-12.962,8.354-13.716,15.649
				c-0.518,5.01,0.098,11.502,0.641,17.229c0.341,3.594,0.663,6.989,0.663,9.569v11.472c0,1.072,0.21,1.959,2.798,1.959h110.987
				c5.379,0,9.072-2.095,10.979-6.225c0.563-1.218,1.211-2.887,1.963-4.818c2.232-5.743,5.605-14.421,10.977-22.093
				c2.615-3.734,5.105-6.602,7.302-9.131c3.75-4.318,6.46-7.438,6.46-11.361C336.004,77.627,326.633,68.571,315.541,64.203z
				 M263.162,137.048h-75.825c-2.239,0-2.239-0.618-2.239-1.399v-11.472c0-2.606-0.323-6.015-0.665-9.622
				c-0.541-5.702-1.153-12.165-0.642-17.118c0.727-7.028,6.914-11.016,13.464-15.236c0.879-0.567,1.763-1.137,2.641-1.718
				c7.219-4.783,32.452-16.283,37.047-17.687c11.768-3.595,25.588-5.012,32.147-5.108c-0.315,2.414-2.321,18.085-2.755,29.102
				c-0.36,0.629-3.174,5.755-3.174,12.766V137.048z M329.121,94.973c-2.205,2.54-4.707,5.42-7.337,9.177
				c-5.41,7.728-8.798,16.444-11.041,22.211c-0.747,1.923-1.394,3.584-1.948,4.786c-1.807,3.916-5.33,5.9-10.471,5.9h-34.603V99.555
				c0-7.29,3.099-12.488,3.131-12.539l0.04-0.135c0.432-11.115,2.482-27.051,2.764-29.201c0.049,0,0.107-0.002,0.155-0.002
				c18.851,0,33.316,2.239,45.524,7.045c10.712,4.218,20.107,13.216,20.107,19.256C335.443,87.694,332.792,90.748,329.121,94.973z"
				/>
		</g>
		<g>
			<path style="fill:#525252;" d="M175.355,141.338c1.58-3.436,2.468-7.255,2.468-11.285c0-14.938-12.109-27.047-27.047-27.047
				s-27.047,12.109-27.047,27.047c0,3.975,0.864,7.746,2.404,11.145c5.297,0.093,10.434,0.14,14.71,0.14
				C144.386,141.338,157.439,141.338,175.355,141.338z"/>
			<path style="fill:#525252;" d="M370.64,137.962c0.764-2.502,1.178-5.157,1.178-7.909c0-14.938-12.11-27.047-27.048-27.047
				s-27.047,12.109-27.047,27.047c0,4.029,0.889,7.849,2.469,11.285c13.736,0,22.976,0,24.578,0
				C346.444,141.338,357.811,139.805,370.64,137.962z"/>
		</g>
		
			<ellipse transform="matrix(0.7071 -0.7071 0.7071 0.7071 -47.8001 144.7067)" style="fill:#404040;" cx="150.776" cy="130.053" rx="22.757" ry="22.757"/>
		<path style="fill:#C4C4C4;" d="M162.911,142.187c-6.701,6.702-17.567,6.702-24.268,0c-6.702-6.701-6.702-17.567,0-24.268
			c6.701-6.702,17.567-6.702,24.268,0C169.612,124.62,169.612,135.486,162.911,142.187z"/>
		<path style="fill:#ABABAB;" d="M162.911,142.187c6.702-6.701,6.702-17.567,0-24.268l-24.268,24.268
			C145.343,148.889,156.21,148.889,162.911,142.187z"/>
		<path style="fill:#404040;" d="M367.527,130.053c0,12.568-10.189,22.757-22.758,22.757c-12.567,0-22.756-10.189-22.756-22.757
			c0-12.568,10.188-22.757,22.756-22.757C357.338,107.296,367.527,117.485,367.527,130.053z"/>
		<path style="fill:#C4C4C4;" d="M356.904,142.187c-6.701,6.702-17.567,6.702-24.269,0c-6.701-6.701-6.701-17.567,0-24.268
			c6.701-6.702,17.567-6.702,24.269,0C363.605,124.62,363.605,135.486,356.904,142.187z"/>
		<path style="fill:#ABABAB;" d="M356.904,142.187c6.701-6.701,6.701-17.567,0-24.268l-24.269,24.268
			C339.337,148.889,350.203,148.889,356.904,142.187z"/>
		<path style="fill:#474747;" d="M184.982,81.531c2.308-1.399,17.907-10.072,24.902-13.64c6.995-3.567,14.55-6.645,15.809-6.925
			c1.259-0.28,2.518-1.819,1.399-2.448c-0.886-0.498-3.525-0.601-7.184-0.554c-15.943,5.961-35.168,16.881-51.971,25.456
			c0,0,6.972,0,9.35,0C179.665,83.419,182.673,82.93,184.982,81.531z"/>
		<path style="fill:#474747;" d="M264.469,59.357c-3.076,0.111-17.722,1.12-27.888,4.664c-10.166,3.544-32.643,15.203-36.467,17.907
			c-3.823,2.705-3.357,5.316,0,5.316c3.358,0,57.452,0,59.504,0c2.052,0,3.428-0.117,4.058-2.495
			c0.629-2.378,2.938-23.433,2.938-24.272C266.613,59.637,266.379,59.288,264.469,59.357z"/>
		<path style="fill:#474747;" d="M270.601,61.175c-0.14,1.609-0.77,21.825-0.77,22.664c0,0.839-0.35,3.404,1.889,3.404
			s54.841,0,57.219,0c2.378,0,4.827-0.327,5.316-2.215c0.489-1.889-7.001-13.136-14.34-16.788
			c-17.871-8.892-40.711-8.892-46.517-8.892C270.95,59.349,270.662,60.05,270.601,61.175z"/>
		<path style="fill:#474747;" d="M367.06,76.355c2.082,0.208,6.291,0.299,9.522-0.042c-4.076-2.152-24.777-12.978-40.506-19.194
			c-1.964,0-4.09,0-4.69,0c-1.189,0-2.379,0.823-1.609,2.23c0.77,1.407,11.263,6.234,21.475,10.99
			C361.465,75.096,364.264,76.075,367.06,76.355z"/>
		<path style="fill:#FFFFFF;" d="M121.584,97.41c-1.399,0.038-14.643,0.467-18,1.772c-3.358,1.306-10.633,6.715-12.125,8.954
			c-1.492,2.238,0,3.543,1.865,3.451c1.866-0.093,14.083-0.746,16.602-0.746c2.518,0,5.41-1.679,6.809-3.078
			c1.399-1.399,6.179-7.205,6.995-8.324C124.545,98.319,123.377,97.361,121.584,97.41z"/>
		<path style="fill:#FFBA00;" d="M121.584,97.41c-0.798,0.021-5.461,0.171-9.938,0.538c-2.86,2.241-6.821,6.855-8.189,13.131
			c2.856-0.132,5.453-0.239,6.468-0.239c2.518,0,5.41-1.679,6.809-3.078c1.399-1.399,6.179-7.205,6.995-8.324
			C124.545,98.319,123.377,97.361,121.584,97.41z"/>
		<path style="fill:#525252;" d="M90.85,131.255c0,1.126-0.913,2.039-2.039,2.039l0,0c-1.125,0-2.038-0.913-2.038-2.039v-5.995
			c0-1.127,0.913-2.039,2.038-2.039l0,0c1.126,0,2.039,0.913,2.039,2.039V131.255z"/>
		<path style="fill:#525252;" d="M103.457,133.749c0,1.101-0.892,1.994-1.994,1.994H97.72c-1.102,0-1.994-0.893-1.994-1.994l0,0
			c0-1.101,0.892-1.994,1.994-1.994h3.744C102.565,131.755,103.457,132.648,103.457,133.749L103.457,133.749z"/>
		<path style="fill:#D4085E;" d="M415.504,104.31c-0.037-0.014-0.07-0.032-0.107-0.045c0,0-1.469-6.505-2.588-8.324
			c-0.63-1.023-3.184-6.114-6.056-10.501c-4.525,0.339-13.16,1.059-16.003,1.803c-3.916,1.026-4.662,3.265-0.932,6.715
			c3.73,3.451,12.777,9.046,17.067,9.979C409.586,104.526,412.876,104.595,415.504,104.31z"/>
		<path style="fill:#525252;" d="M253.742,96.43c0,2.55-2.066,4.617-4.616,4.617c-2.55,0-4.617-2.067-4.617-4.617
			c0-2.55,2.067-4.617,4.617-4.617C251.676,91.813,253.742,93.88,253.742,96.43z"/>
		<path style="fill:#6E6E6E;" d="M256.4,96.43c0,1.082-0.877,1.959-1.959,1.959H243.81c-1.082,0-1.959-0.877-1.959-1.959l0,0
			c0-1.082,0.876-1.958,1.959-1.958h10.632C255.523,94.472,256.4,95.348,256.4,96.43L256.4,96.43z"/>
		<path style="fill:#525252;" d="M315.064,96.43c0,2.55-2.066,4.617-4.616,4.617c-2.55,0-4.616-2.067-4.616-4.617
			c0-2.55,2.066-4.617,4.616-4.617C312.998,91.813,315.064,93.88,315.064,96.43z"/>
		<path style="fill:#6E6E6E;" d="M317.723,96.43c0,1.082-0.876,1.959-1.958,1.959h-10.633c-1.082,0-1.958-0.877-1.958-1.959l0,0
			c0-1.082,0.876-1.958,1.958-1.958h10.633C316.847,94.472,317.723,95.348,317.723,96.43L317.723,96.43z"/>
	</g>
	<g>
		<path style="fill:#616161;" d="M414.557,277.139c0,0-2.798,4.057-9.094,5.176c-6.295,1.119-31.477,1.68-46.307,1.68
			c-14.829,0-196.278,0-203.926,0c-3.918,0-60.903-8.395-65.52-9.514c-4.617-1.119-7.695-4.896-7.695-8.395
			c0-3.497,0-14.99,0-16.134c0-1.144,0.979-2.472,2.588-3.032c0,0,1.469-6.505,2.588-8.324c1.119-1.819,8.324-16.508,12.591-17.208
			c4.267-0.699,22.897-2.028,22.897-2.028s41.41-22.104,55.213-23.876c13.804-1.772,69.903-1.306,87.391,1.072
			c17.487,2.378,44.302,18.047,66.779,29.519c0,0,47.519,7.415,56.472,8.814c8.954,1.399,20.146,7.555,23.084,12.171
			s3.987,9.303,4.687,9.932c0.7,0.631,1.679,1.539,1.679,2.939c0,1.399,0,7.345,0,8.884c0,1.539-1.702,2.262-1.702,3.428
			C416.282,273.408,415.516,276.045,414.557,277.139z"/>
		
			<linearGradient id="SVGID_00000129893936478676297990000017682974267638386847_" gradientUnits="userSpaceOnUse" x1="-3032.446" y1="238.1525" x2="-3029.1567" y2="277.8656" gradientTransform="matrix(-1 0 0 1 -2780.6875 0)">
			<stop  offset="0" style="stop-color:#707070"/>
			<stop  offset="1" style="stop-color:#616161"/>
		</linearGradient>
		<path style="fill:url(#SVGID_00000129893936478676297990000017682974267638386847_);" d="M417.984,259.931
			c0,1.399,0,7.345,0,8.884c0,1.539-1.702,2.262-1.702,3.428c0,1.166-0.767,3.803-1.726,4.897c0,0-2.798,4.057-9.094,5.176
			c-6.295,1.119-31.477,1.68-46.307,1.68c-14.829,0-196.278,0-203.926,0c-3.918,0-60.903-8.395-65.52-9.514
			c-4.617-1.119-7.695-4.896-7.695-8.395c0-3.497,0-14.99,0-16.134c0-1.144,0.979-2.472,2.588-3.032c0,0,0.572-2.53,1.273-4.876
			l331.74,16.475C417.837,258.926,417.984,259.391,417.984,259.931z"/>
		<g>
			<path style="fill:#525252;" d="M329.281,230.644c-0.463-1.318,1.492-3.246,3.051-4.527c0.171,0.027,0.423,0.066,0.746,0.117
				c-1.767,1.401-3.609,3.256-3.276,4.211c0.861,1.304,23.625,5.946,35.854,8.44c5.563,1.134,9.955,2.029,11.893,2.495
				c3.117,0.748,8.201,2.14,13.117,3.486c6.176,1.691,12.01,3.289,13.531,3.503c2.279,0.321,5.431,0.519,8.371,0.298
				c0.099,0.181,0.193,0.36,0.287,0.54c-0.947,0.079-1.918,0.118-2.88,0.118c-2.138,0-4.221-0.17-5.857-0.401
				c-1.557-0.22-7.407-1.822-13.602-3.518c-4.912-1.345-9.99-2.736-13.1-3.482c-1.928-0.463-6.316-1.358-11.873-2.491
				C341.841,234.599,329.725,231.912,329.281,230.644z"/>
			<path style="fill:#525252;" d="M163.997,226.635c0,3.923,2.709,7.043,6.459,11.361c2.197,2.53,4.688,5.397,7.302,9.132
				c5.371,7.671,8.745,16.35,10.978,22.092c0.751,1.933,1.4,3.601,1.962,4.818c1.906,4.13,5.6,6.226,10.979,6.226h110.987
				c2.589,0,2.799-0.887,2.799-1.959v-11.473c0-2.579,0.321-5.975,0.663-9.568c0.543-5.729,1.158-12.22,0.641-17.229
				c-0.754-7.295-7.051-11.354-13.717-15.649c-0.877-0.565-1.759-1.134-2.635-1.714c-7.742-5.128-32.854-16.429-37.193-17.755
				c-12.262-3.745-26.769-5.142-33.032-5.142c-18.923,0-33.455,2.251-45.73,7.085C173.367,211.226,163.997,220.282,163.997,226.635z
				 M236.838,242.21c0-7.011-2.813-12.137-3.174-12.765c-0.433-11.018-2.439-26.688-2.755-29.102
				c6.56,0.097,20.38,1.513,32.147,5.108c4.596,1.404,29.828,12.904,37.048,17.686c0.878,0.581,1.763,1.151,2.642,1.718
				c6.55,4.221,12.736,8.208,13.463,15.236c0.512,4.954-0.1,11.417-0.641,17.119c-0.343,3.607-0.666,7.016-0.666,9.621v11.473
				c0,0.781,0,1.398-2.239,1.398h-75.825V242.21z M164.557,226.635c0-6.04,9.396-15.038,20.108-19.256
				c12.207-4.806,26.673-7.045,45.524-7.045c0.048,0,0.106,0.002,0.155,0.002c0.281,2.15,2.333,18.087,2.763,29.202l0.04,0.134
				c0.032,0.051,3.131,5.249,3.131,12.539v37.493h-34.602c-5.141,0-8.665-1.984-10.471-5.9c-0.555-1.201-1.2-2.863-1.948-4.785
				c-2.243-5.768-5.631-14.484-11.041-22.211c-2.63-3.758-5.131-6.637-7.337-9.177C167.208,233.403,164.557,230.349,164.557,226.635
				z"/>
		</g>
		<g>
			<path style="fill:#525252;" d="M324.645,283.994c-1.58-3.437-2.468-7.256-2.468-11.285c0-14.938,12.109-27.047,27.047-27.047
				c14.938,0,27.048,12.11,27.048,27.047c0,3.975-0.865,7.746-2.405,11.144c-5.296,0.093-10.434,0.141-14.71,0.141
				C355.614,283.994,342.56,283.994,324.645,283.994z"/>
			<path style="fill:#525252;" d="M129.361,280.617c-0.764-2.502-1.178-5.156-1.178-7.908c0-14.938,12.11-27.047,27.047-27.047
				s27.047,12.11,27.047,27.047c0,4.029-0.888,7.849-2.468,11.285c-13.737,0-22.977,0-24.579,0
				C153.556,283.994,142.189,282.46,129.361,280.617z"/>
		</g>
		<path style="fill:#404040;" d="M326.467,272.709c0,12.568,10.189,22.756,22.757,22.756c12.568,0,22.757-10.188,22.757-22.756
			c0-12.568-10.189-22.757-22.757-22.757C336.656,249.952,326.467,260.141,326.467,272.709z"/>
		<path style="fill:#C4C4C4;" d="M337.09,284.843c6.701,6.702,17.567,6.702,24.268,0c6.702-6.701,6.702-17.567,0-24.269
			c-6.7-6.701-17.566-6.701-24.268,0C330.389,267.275,330.389,278.142,337.09,284.843z"/>
		<path style="fill:#ABABAB;" d="M337.09,284.843c-6.701-6.701-6.701-17.567,0-24.269l24.268,24.269
			C354.657,291.545,343.791,291.545,337.09,284.843z"/>
		<path style="fill:#404040;" d="M132.474,272.709c0,12.568,10.188,22.756,22.757,22.756c12.568,0,22.756-10.188,22.756-22.756
			c0-12.568-10.189-22.757-22.756-22.757C142.662,249.952,132.474,260.141,132.474,272.709z"/>
		<path style="fill:#C4C4C4;" d="M143.096,284.843c6.701,6.702,17.567,6.702,24.268,0c6.702-6.701,6.702-17.567,0-24.269
			c-6.701-6.701-17.567-6.701-24.268,0C136.395,267.275,136.395,278.142,143.096,284.843z"/>
		<path style="fill:#ABABAB;" d="M143.096,284.843c-6.702-6.701-6.702-17.567,0-24.269l24.268,24.269
			C160.663,291.545,149.797,291.545,143.096,284.843z"/>
		<path style="fill:#474747;" d="M315.019,224.186c-2.309-1.399-17.907-10.073-24.902-13.64c-6.995-3.567-14.55-6.646-15.809-6.925
			c-1.259-0.28-2.518-1.819-1.399-2.448c0.886-0.498,3.525-0.601,7.185-0.554c15.942,5.961,35.168,16.881,51.971,25.456
			c0,0-6.972,0-9.351,0C320.335,226.075,317.326,225.585,315.019,224.186z"/>
		<path style="fill:#474747;" d="M235.532,202.012c3.075,0.111,17.722,1.12,27.887,4.664c10.166,3.544,32.644,15.202,36.467,17.907
			c3.823,2.705,3.358,5.316,0,5.316c-3.357,0-57.452,0-59.504,0c-2.052,0-3.427-0.117-4.057-2.496
			c-0.63-2.378-2.938-23.433-2.938-24.272C233.387,202.292,233.621,201.943,235.532,202.012z"/>
		<path style="fill:#474747;" d="M229.4,203.831c0.14,1.609,0.77,21.824,0.77,22.663c0,0.839,0.35,3.405-1.889,3.405
			c-2.238,0-54.84,0-57.219,0s-4.827-0.327-5.316-2.215c-0.49-1.889,7.001-13.137,14.34-16.788
			c17.871-8.892,40.711-8.892,46.517-8.892C229.05,202.004,229.339,202.706,229.4,203.831z"/>
		<path style="fill:#474747;" d="M132.939,219.01c-2.082,0.208-6.292,0.299-9.521-0.042c4.076-2.153,24.777-12.978,40.506-19.195
			c1.963,0,4.09,0,4.689,0c1.189,0,2.378,0.823,1.609,2.23c-0.77,1.407-11.262,6.233-21.475,10.99
			C138.535,217.751,135.737,218.73,132.939,219.01z"/>
		<path style="fill:#FFFFFF;" d="M378.416,240.065c1.398,0.038,14.643,0.467,18,1.773c3.357,1.306,10.633,6.715,12.125,8.953
			c1.492,2.239,0.001,3.544-1.865,3.451c-1.865-0.093-14.083-0.745-16.602-0.745c-2.518,0-5.409-1.68-6.809-3.079
			c-1.398-1.399-6.179-7.205-6.994-8.324C375.455,240.974,376.623,240.017,378.416,240.065z"/>
		<path style="fill:#FFBA00;" d="M378.416,240.065c0.799,0.022,5.461,0.171,9.939,0.538c2.86,2.241,6.821,6.856,8.189,13.131
			c-2.855-0.133-5.453-0.238-6.469-0.238c-2.518,0-5.409-1.68-6.809-3.079c-1.398-1.399-6.179-7.205-6.994-8.324
			C375.455,240.974,376.623,240.017,378.416,240.065z"/>
		<path style="fill:#525252;" d="M409.15,273.91c0,1.127,0.913,2.039,2.039,2.039l0,0c1.126,0,2.039-0.912,2.039-2.039v-5.994
			c0-1.127-0.913-2.039-2.039-2.039l0,0c-1.126,0-2.039,0.912-2.039,2.039V273.91z"/>
		<path style="fill:#525252;" d="M396.543,276.404c0,1.102,0.892,1.993,1.993,1.993h3.745c1.1,0,1.993-0.892,1.993-1.993l0,0
			c0-1.102-0.893-1.994-1.993-1.994h-3.745C397.435,274.41,396.543,275.303,396.543,276.404L396.543,276.404z"/>
		<path style="fill:#D4085E;" d="M84.497,246.965c0.037-0.014,0.07-0.032,0.107-0.045c0,0,1.469-6.505,2.588-8.324
			c0.629-1.023,3.183-6.114,6.055-10.5c4.525,0.339,13.16,1.059,16.002,1.803c3.917,1.026,4.662,3.265,0.932,6.715
			c-3.73,3.45-12.778,9.046-17.068,9.979C90.414,247.181,87.124,247.25,84.497,246.965z"/>
		<path style="fill:#525252;" d="M246.258,239.085c0,2.55,2.067,4.617,4.617,4.617c2.549,0,4.617-2.067,4.617-4.617
			c0-2.55-2.067-4.616-4.617-4.616C248.325,234.469,246.258,236.536,246.258,239.085z"/>
		<path style="fill:#6E6E6E;" d="M243.6,239.085c0,1.082,0.877,1.959,1.959,1.959h10.632c1.082,0,1.959-0.877,1.959-1.959l0,0
			c0-1.082-0.877-1.958-1.959-1.958h-10.632C244.477,237.127,243.6,238.003,243.6,239.085L243.6,239.085z"/>
		<path style="fill:#525252;" d="M184.936,239.085c0,2.55,2.066,4.617,4.617,4.617c2.55,0,4.617-2.067,4.617-4.617
			c0-2.55-2.067-4.616-4.617-4.616C187.002,234.469,184.936,236.536,184.936,239.085z"/>
		<path style="fill:#6E6E6E;" d="M182.277,239.085c0,1.082,0.876,1.959,1.958,1.959h10.632c1.082,0,1.959-0.877,1.959-1.959l0,0
			c0-1.082-0.877-1.958-1.959-1.958h-10.632C183.154,237.127,182.277,238.003,182.277,239.085L182.277,239.085z"/>
	</g>
	<g>
		<g>
			<g>
				<path style="fill:#474747;" d="M215.81,368.19l-6.763-0.001c-2.014,0-3.703,1.505-3.703,3.359v2.586
					c0,1.084-1.958,2.064-2.763,2.344l1.382,2.238c0,0,1.839-1.047,4.599-1.258l-0.014-0.015c0.165,0.006,0.328,0.017,0.499,0.002
					l6.763-0.595c1.699-0.15,3.035-1.584,3.035-3.208v-2.513C218.845,369.506,217.509,368.19,215.81,368.19z"/>
				<path style="fill:#474747;" d="M77.766,368.19l6.763-0.001c2.013,0,3.702,1.505,3.702,3.359v2.586
					c0,1.084,1.959,2.064,2.763,2.344l-1.381,2.238c0,0-1.839-1.047-4.599-1.258l0.014-0.015c-0.165,0.006-0.329,0.017-0.499,0.002
					l-6.763-0.595c-1.7-0.15-3.035-1.584-3.035-3.208v-2.513C74.73,369.506,76.066,368.19,77.766,368.19z"/>
			</g>
			<g>
				<path style="fill:#404040;" d="M101.81,437.02c0,1.855-1.503,3.358-3.357,3.358H86.561c-1.854,0-3.357-1.502-3.357-3.358V409.6
					c0-1.854,1.503-3.357,3.357-3.357h11.892c1.854,0,3.357,1.504,3.357,3.357V437.02z"/>
				<path style="fill:#404040;" d="M210.372,437.02c0,1.855-1.504,3.358-3.358,3.358h-11.891c-1.854,0-3.358-1.502-3.358-3.358
					V409.6c0-1.854,1.504-3.357,3.358-3.357h11.891c1.854,0,3.358,1.504,3.358,3.357V437.02z"/>
			</g>
			<path style="fill:#616161;" d="M203.587,375.815c-1.959-4.758-6.296-16.158-10.073-24.693
				c-3.777-8.533-11.052-10.492-15.669-10.492s-31.058,0-31.058,0s-26.441,0-31.058,0c-4.616,0-11.891,1.959-15.669,10.492
				c-3.777,8.535-8.114,19.936-10.073,24.693c-1.958,4.756-5.316,7.064-5.316,12.801c0,5.735,0,18.793,0,21.777
				s5.317,19.492,16.602,19.492c11.285,0,45.514,0,45.514,0s34.229,0,45.514,0c11.285,0,16.602-16.508,16.602-19.492
				s0-16.042,0-21.777C208.903,382.879,205.545,380.57,203.587,375.815z"/>
			
				<linearGradient id="SVGID_00000154410067771708743400000010133460520909802165_" gradientUnits="userSpaceOnUse" x1="145.8116" y1="396.6027" x2="148.082" y2="424.0125">
				<stop  offset="0" style="stop-color:#707070"/>
				<stop  offset="1" style="stop-color:#616161"/>
			</linearGradient>
			<path style="fill:url(#SVGID_00000154410067771708743400000010133460520909802165_);" d="M84.672,406.242c0,1.867,0,3.364,0,4.15
				c0,2.984,5.317,19.492,16.602,19.492c11.285,0,45.514,0,45.514,0s34.229,0,45.514,0c11.285,0,16.602-16.508,16.602-19.492
				c0-0.786,0-2.283,0-4.15H84.672z"/>
			<path style="fill:none;stroke:#525252;stroke-width:0.5;stroke-miterlimit:10;" d="M196.421,372.06
				c0,0-8.844,10.166-19.461,19.035"/>
			<path style="fill:none;stroke:#525252;stroke-width:0.5;stroke-miterlimit:10;" d="M98.289,368.19c0,0-0.19,1.359-1.959,6.203
				c-0.886,2.425-5.083,10.445-1.399,13.057c3.684,2.611,20.798,3.684,22.804,3.684c2.005,0,29.053,0,29.053,0s27.047,0,29.052,0
				c2.006,0,19.12-1.072,22.804-3.684c3.684-2.611-0.513-10.632-1.399-13.057c-1.769-4.844-1.958-6.203-1.958-6.203"/>
			<path style="fill:none;stroke:#525252;stroke-width:0.5;stroke-miterlimit:10;" d="M97.154,372.06
				c0,0,8.844,10.166,19.461,19.035"/>
			<path style="fill:#474747;" d="M196.125,368.703c-0.466-1.119-4.85-12.498-8.207-18.188c-3.357-5.689-8.861-5.969-12.218-5.969
				c-3.356,0-28.9,0-28.912,0l0,0c-0.012,0-25.556,0-28.913,0c-3.357,0-8.86,0.279-12.218,5.969
				c-3.358,5.69-7.742,17.068-8.207,18.188c-0.467,1.119,0.279,3.357,2.051,3.357c1.771,0,47.262,0,47.286,0l0,0
				c0.024,0,45.514,0,47.286,0C195.845,372.06,196.592,369.822,196.125,368.703z"/>
			<path style="fill:#474747;" d="M166.001,392.951c-1.12,0-19.213,0-19.213,0s-18.094,0-19.213,0c-1.119,0-2.797,0.747-2.331,2.146
				c0.466,1.398,6.528,9.605,8.86,9.605c2.332,0,12.685,0,12.685,0s10.352,0,12.684,0c2.332,0,8.394-8.207,8.86-9.605
				C168.798,393.698,167.12,392.951,166.001,392.951z"/>
			<path style="fill:#474747;" d="M174.814,411.559c-1.12,0-26.395,0-26.395,0s-28.54,0-29.659,0c-1.119,0-2.798,0.607-2.331,1.745
				c0.466,1.138,6.528,7.813,8.86,7.813c2.331,0,23.13,0,23.13,0s17.534,0,19.866,0c2.331,0,8.393-6.676,8.86-7.813
				C177.611,412.166,175.933,411.559,174.814,411.559z"/>
			<g>
				<g>
					<path style="fill:#FFFFFF;" d="M204.325,386.284c-1.398,0.038-14.643,0.466-18,1.772c-3.358,1.305-10.633,6.715-12.125,8.953
						c-1.493,2.238-0.001,3.543,1.865,3.451c1.865-0.094,14.083-0.746,16.602-0.746c2.518,0,5.41-1.68,6.809-3.078
						c1.399-1.398,5.436-7.008,6.252-8.127C206.543,387.391,206.119,386.236,204.325,386.284z"/>
					<path style="fill:#FFBA00;" d="M204.325,386.284c-0.799,0.022-5.461,0.171-9.938,0.538c-2.86,2.241-6.821,6.855-8.188,13.131
						c2.855-0.133,7.869-0.238,8.885-0.238c2.518,0,5.41-1.68,6.809-3.078c1.399-1.398,3.451-5.41,4.579-8.324
						C206.971,387.022,206.119,386.236,204.325,386.284z"/>
					<path style="fill:#525252;" d="M187.577,420.129c0,1.127-0.913,2.039-2.039,2.039l0,0c-1.126,0-2.039-0.912-2.039-2.039v-5.994
						c0-1.127,0.913-2.039,2.039-2.039l0,0c1.126,0,2.039,0.912,2.039,2.039V420.129z"/>
					<path style="fill:#525252;" d="M200.185,422.623c0,1.102-0.892,1.994-1.993,1.994h-3.745c-1.101,0-1.994-0.893-1.994-1.994l0,0
						c0-1.101,0.893-1.994,1.994-1.994h3.745C199.292,420.629,200.185,421.522,200.185,422.623L200.185,422.623z"/>
				</g>
				<g>
					<path style="fill:#FFFFFF;" d="M89.251,386.284c1.398,0.038,14.643,0.466,18,1.772c3.358,1.305,10.632,6.715,12.125,8.953
						c1.492,2.238,0.001,3.543-1.865,3.451c-1.866-0.094-14.084-0.746-16.602-0.746s-5.41-1.68-6.809-3.078
						c-1.399-1.398-5.436-7.008-6.252-8.127C87.032,387.391,87.457,386.236,89.251,386.284z"/>
					<path style="fill:#FFBA00;" d="M89.251,386.284c0.798,0.022,5.46,0.171,9.938,0.538c2.86,2.241,6.821,6.855,8.188,13.131
						c-2.855-0.133-7.87-0.238-8.885-0.238c-2.519,0-5.41-1.68-6.809-3.078c-1.399-1.398-3.451-5.41-4.579-8.324
						C86.605,387.022,87.457,386.236,89.251,386.284z"/>
					<path style="fill:#525252;" d="M105.998,420.129c0,1.127,0.913,2.039,2.039,2.039l0,0c1.125,0,2.038-0.912,2.038-2.039v-5.994
						c0-1.127-0.913-2.039-2.038-2.039l0,0c-1.127,0-2.039,0.912-2.039,2.039V420.129z"/>
					<path style="fill:#525252;" d="M93.391,422.623c0,1.102,0.893,1.994,1.994,1.994h3.745c1.101,0,1.993-0.893,1.993-1.994l0,0
						c0-1.101-0.892-1.994-1.993-1.994h-3.745C94.283,420.629,93.391,421.522,93.391,422.623L93.391,422.623z"/>
				</g>
			</g>
			<path style="fill:#474747;" d="M146.788,429.885c0,0,16.831,0,30.78,0l-1.482-2.178c-1.029-1.516-3.318-2.67-5.172-2.67H122.66
				c-1.856,0-4.139,1.154-5.171,2.67l-1.481,2.178C129.958,429.885,146.788,429.885,146.788,429.885z"/>
			
				<linearGradient id="SVGID_00000085929751482237733230000008258151703578805127_" gradientUnits="userSpaceOnUse" x1="146.7876" y1="351.9143" x2="146.7876" y2="374.9619">
				<stop  offset="0" style="stop-color:#575757"/>
				<stop  offset="1" style="stop-color:#474747"/>
			</linearGradient>
			<path style="fill:url(#SVGID_00000085929751482237733230000008258151703578805127_);" d="M99.502,372.06
				c1.771,0,47.262,0,47.286,0s45.514,0,47.286,0c1.772,0,2.519-2.238,2.052-3.357c-0.262-0.629-1.763-4.502-3.623-8.783
				c-22.968,0.262-63.742-6.891-89.596-4.066c-2.629,5.596-5.112,12.023-5.456,12.85C96.983,369.822,97.729,372.06,99.502,372.06z"
				/>
		</g>
		<g>
			<path style="fill:#404040;" d="M390.64,425.236c0,1.854-1.503,3.358-3.358,3.358h-68.139c-1.853,0-3.357-1.504-3.357-3.358
				v-2.813c0-1.854,1.504-3.357,3.357-3.357h68.139c1.855,0,3.358,1.503,3.358,3.357V425.236z"/>
			<g>
				<path style="fill:#474747;" d="M422.234,368.19l-6.763-0.001c-2.013,0-3.702,1.505-3.702,3.359v2.586
					c0,1.084-1.959,2.064-2.764,2.344l1.382,2.238c0,0,1.839-1.047,4.599-1.258l-0.014-0.015c0.165,0.006,0.329,0.017,0.499,0.002
					l6.763-0.595c1.699-0.15,3.035-1.584,3.035-3.208v-2.513C425.27,369.506,423.934,368.19,422.234,368.19z"/>
				<path style="fill:#474747;" d="M284.19,368.19l6.763-0.001c2.014,0,3.703,1.505,3.703,3.359v2.586
					c0,1.084,1.958,2.064,2.763,2.344l-1.382,2.238c0,0-1.84-1.047-4.6-1.258l0.014-0.015c-0.164,0.006-0.328,0.017-0.498,0.002
					l-6.763-0.595c-1.699-0.15-3.035-1.584-3.035-3.208v-2.513C281.155,369.506,282.491,368.19,284.19,368.19z"/>
				<path style="fill:#D9D9D9;" d="M291.098,376.33c1.551,0.135,2.439-1.566,2.439-2.475v-2.307c0-1.214-1.184-2.24-2.584-2.24
					l-6.764,0.002c-1.074,0-1.915,0.799-1.915,1.82v2.513c0,1.056,0.904,1.995,2.015,2.095L291.098,376.33L291.098,376.33z"/>
				<path style="fill:#D9D9D9;" d="M415.389,376.33c-1.551,0.135-2.44-1.566-2.44-2.475v-2.307c0-1.214,1.184-2.24,2.584-2.24
					l6.764,0.002c1.074,0,1.914,0.799,1.914,1.82v2.513c0,1.056-0.903,1.995-2.014,2.095L415.389,376.33L415.389,376.33z"/>
			</g>
			<g>
				<path style="fill:#404040;" d="M308.234,437.02c0,1.855-1.503,3.358-3.357,3.358h-11.891c-1.854,0-3.358-1.502-3.358-3.358
					V409.6c0-1.854,1.504-3.357,3.358-3.357h11.891c1.854,0,3.357,1.504,3.357,3.357V437.02z"/>
				<path style="fill:#404040;" d="M416.797,437.02c0,1.855-1.504,3.358-3.357,3.358h-11.892c-1.854,0-3.357-1.502-3.357-3.358
					V409.6c0-1.854,1.503-3.357,3.357-3.357h11.892c1.854,0,3.357,1.504,3.357,3.357V437.02z"/>
			</g>
			<path style="fill:#616161;" d="M410.012,375.815c-1.959-4.758-6.295-16.158-10.072-24.693
				c-3.777-8.533-11.053-10.492-15.67-10.492c-4.616,0-31.057,0-31.057,0s-26.441,0-31.059,0c-4.616,0-11.891,1.959-15.668,10.492
				c-3.777,8.535-8.114,19.936-10.073,24.693c-1.958,4.756-5.315,7.064-5.315,12.801c0,5.735,0,18.793,0,21.777
				s5.316,19.492,16.602,19.492c1.351,0,3.031,0,4.942,0c2.563,0,4.804-1.668,5.47-2.496l1.361-1.693
				c1.086-1.349,3.419-2.381,5.272-2.381h56.939c1.856,0,4.189,1.032,5.271,2.381l1.443,1.797c0.754,0.855,2.906,2.393,5.375,2.393
				c1.914,0,3.6,0,4.953,0c11.285,0,16.602-16.508,16.602-19.492s0-16.042,0-21.777C415.328,382.879,411.971,380.57,410.012,375.815
				z"/>
			
				<linearGradient id="SVGID_00000165228651435329659840000012919323776376908974_" gradientUnits="userSpaceOnUse" x1="353.2129" y1="372.6658" x2="353.2129" y2="389.7427">
				<stop  offset="0" style="stop-color:#707070"/>
				<stop  offset="1" style="stop-color:#616161"/>
			</linearGradient>
			<path style="fill:url(#SVGID_00000165228651435329659840000012919323776376908974_);" d="M296.413,375.815
				c-1.958,4.756-5.315,7.064-5.315,12.801c0,2.984,0,7.95,0,12.45h124.23c0-4.5,0-9.466,0-12.45c0-5.736-3.357-8.045-5.316-12.801
				c-0.336-0.815-0.744-1.835-1.205-2.991H297.617C297.158,373.979,296.749,375,296.413,375.815z"/>
			<g>
				<path style="fill:#525252;" d="M377.695,392.042H328.73c-1.874,0-2.949-0.374-3.713-1.29c-0.184-0.221-1.038-1.213-2.244-2.615
					c-3.341-3.879-9.559-11.102-11.469-13.477c-2.727-3.39-2.998-5.545-2.93-7.043c0.073-1.615,2.815-4.924,2.933-5.063l0.43,0.358
					c-0.761,0.914-2.749,3.545-2.804,4.73c-0.064,1.4,0.198,3.424,2.807,6.666c1.905,2.369,8.118,9.586,11.457,13.463
					c1.209,1.406,2.066,2.401,2.25,2.622c0.653,0.784,1.573,1.089,3.283,1.089h48.965c1.709,0,2.629-0.305,3.282-1.089
					c0.185-0.221,1.04-1.216,2.251-2.622c3.338-3.877,9.551-11.094,11.456-13.463c2.608-3.242,2.87-5.266,2.807-6.666
					c-0.054-1.186-2.042-3.816-2.804-4.73l0.43-0.358c0.117,0.14,2.859,3.448,2.933,5.063c0.068,1.498-0.202,3.653-2.929,7.043
					c-1.912,2.375-8.129,9.598-11.469,13.477c-1.207,1.402-2.061,2.395-2.245,2.615
					C380.644,391.668,379.568,392.042,377.695,392.042z"/>
			</g>
			<g>
				<path style="fill:#D4085E;" d="M395.893,374.951c0,0-12.427,14.502-12.637,14.922c-0.21,0.42-0.35,1.26,1.609,1.26
					c1.958,0,17.977,0,19.445,0c1.469,0,3.288-0.35,3.288-2.449c0-2.098,0-9.545,0-11.049s-0.489-2.684-2.519-2.684
					C403.052,374.951,395.893,374.951,395.893,374.951z"/>
				<path style="fill:#D4085E;" d="M310.532,374.951c0,0,12.427,14.502,12.637,14.922c0.21,0.42,0.35,1.26-1.608,1.26
					c-1.959,0-17.977,0-19.446,0c-1.469,0-3.288-0.35-3.288-2.449c0-2.098,0-9.545,0-11.049s0.49-2.684,2.518-2.684
					S310.532,374.951,310.532,374.951z"/>
			</g>
			<path style="fill:#474747;" d="M388.56,348.184c-0.559-0.84-1.865-2.938-4.476-2.938c-2.611,0-30.871,0-30.871,0
				s-28.26,0-30.871,0c-2.612,0-3.918,2.098-4.478,2.938c-0.56,0.84-7.368,13.43-7.461,14.549c-0.093,1.119,0.652,1.818,3.917,1.818
				c3.265,0,38.893,0,38.893,0s35.627,0,38.892,0c3.265,0,4.011-0.699,3.917-1.818C395.929,361.613,389.12,349.023,388.56,348.184z"
				/>
			<rect x="337.404" y="378.215" style="fill:#E8E8E8;" width="31.617" height="9.514"/>
			
				<linearGradient id="SVGID_00000073718240869568377420000007832239452727554492_" gradientUnits="userSpaceOnUse" x1="353.2129" y1="393.2306" x2="353.2129" y2="420.3887">
				<stop  offset="0" style="stop-color:#595959"/>
				<stop  offset="1" style="stop-color:#5C5C5C"/>
			</linearGradient>
			<path style="fill:url(#SVGID_00000073718240869568377420000007832239452727554492_);" d="M291.098,397.801
				c0,5.318,0,10.79,0,12.592c0,2.984,5.316,19.492,16.602,19.492c1.351,0,3.031,0,4.942,0c2.563,0,4.804-1.668,5.47-2.496
				l1.361-1.693c1.086-1.349,3.419-2.381,5.272-2.381h56.939c1.856,0,4.189,1.032,5.271,2.381l1.443,1.797
				c0.754,0.855,2.906,2.393,5.375,2.393c1.914,0,3.6,0,4.953,0c11.285,0,16.602-16.508,16.602-19.492c0-1.802,0-7.273,0-12.592
				H291.098z"/>
		</g>
	</g>
</g>
<g id="DESIGNED_BY_FREEPIK">
	<g id="XMLID_1_">
		<g id="XMLID_38_">
			<path id="XMLID_59_" style="fill:#4A4A4A;" d="M181.089,472.133c-0.246,0-0.434,0.086-0.566,0.256
				c-0.133,0.17-0.199,0.42-0.199,0.752v2.393c-0.305-0.332-0.617-0.578-0.938-0.738c-0.32-0.16-0.715-0.24-1.182-0.24
				c-0.807,0-1.457,0.283-1.953,0.848c-0.494,0.566-0.742,1.355-0.742,2.369c0,0.478,0.064,0.924,0.188,1.336
				c0.125,0.412,0.309,0.77,0.551,1.074c0.24,0.305,0.525,0.539,0.857,0.703c0.33,0.164,0.688,0.246,1.076,0.246
				c0.293,0,0.563-0.041,0.811-0.123c0.246-0.08,0.477-0.199,0.688-0.355c0.213-0.156,0.428-0.359,0.645-0.607v0.16
				c0,0.297,0.072,0.525,0.217,0.685c0.145,0.16,0.328,0.24,0.549,0.24c0.227,0,0.41-0.078,0.553-0.232
				c0.143-0.154,0.213-0.385,0.213-0.693v-7.147c0-0.305-0.066-0.535-0.199-0.691C181.522,472.211,181.333,472.133,181.089,472.133z
				 M180.024,478.975c-0.141,0.305-0.33,0.533-0.564,0.682c-0.236,0.148-0.496,0.223-0.781,0.223c-0.279,0-0.539-0.078-0.777-0.236
				c-0.236-0.154-0.424-0.387-0.561-0.695c-0.137-0.311-0.205-0.684-0.205-1.123c0-0.414,0.064-0.779,0.193-1.096
				c0.129-0.314,0.311-0.555,0.543-0.723c0.234-0.168,0.5-0.252,0.795-0.252c0.285,0,0.547,0.082,0.787,0.244
				c0.24,0.166,0.43,0.404,0.57,0.713c0.141,0.311,0.209,0.682,0.209,1.113C180.233,478.283,180.165,478.666,180.024,478.975z"/>
			<path id="XMLID_56_" style="fill:#4A4A4A;" d="M188.454,478.053c0.232-0.121,0.35-0.385,0.35-0.793
				c0-0.438-0.113-0.869-0.338-1.293c-0.225-0.424-0.564-0.77-1.02-1.035c-0.451-0.268-0.994-0.4-1.627-0.4
				c-0.488,0-0.93,0.078-1.33,0.234c-0.4,0.156-0.736,0.381-1.01,0.674c-0.271,0.293-0.48,0.642-0.623,1.053
				c-0.143,0.41-0.213,0.854-0.213,1.332c0,1.018,0.289,1.822,0.867,2.416c0.576,0.592,1.387,0.891,2.426,0.891
				c0.457,0,0.859-0.061,1.207-0.178c0.352-0.121,0.643-0.268,0.875-0.449c0.23-0.18,0.402-0.367,0.52-0.564
				c0.113-0.195,0.17-0.365,0.17-0.514c0-0.166-0.051-0.293-0.154-0.385c-0.102-0.09-0.236-0.137-0.402-0.137
				c-0.154,0-0.273,0.035-0.357,0.107c-0.201,0.19-0.365,0.34-0.492,0.451c-0.125,0.111-0.264,0.215-0.414,0.313
				c-0.15,0.098-0.307,0.166-0.467,0.213c-0.16,0.045-0.338,0.068-0.531,0.068c-0.289,0-0.553-0.07-0.791-0.213
				c-0.24-0.143-0.434-0.355-0.576-0.637c-0.145-0.281-0.219-0.605-0.223-0.973h3.168
				C187.892,478.234,188.222,478.174,188.454,478.053z M184.3,477.315c0.055-0.547,0.213-0.959,0.471-1.238
				c0.26-0.279,0.59-0.418,0.994-0.418c0.424,0,0.766,0.137,1.025,0.412c0.258,0.275,0.408,0.689,0.447,1.244H184.3z"/>
			<path id="XMLID_55_" style="fill:#4A4A4A;" d="M193.88,477.617c-0.318-0.17-0.729-0.316-1.23-0.439
				c-0.424-0.104-0.756-0.191-0.996-0.262c-0.242-0.07-0.434-0.16-0.576-0.269c-0.143-0.109-0.215-0.248-0.215-0.418
				c0-0.188,0.098-0.342,0.291-0.465c0.195-0.127,0.438-0.188,0.73-0.188c0.285,0,0.51,0.047,0.676,0.143
				c0.166,0.094,0.313,0.221,0.434,0.379c0.15,0.189,0.283,0.332,0.4,0.426c0.117,0.096,0.258,0.145,0.424,0.145
				c0.23,0,0.408-0.061,0.531-0.178c0.125-0.119,0.189-0.271,0.189-0.457c0-0.172-0.061-0.346-0.178-0.523
				c-0.115-0.178-0.285-0.34-0.51-0.486c-0.223-0.146-0.502-0.264-0.838-0.35c-0.332-0.088-0.709-0.131-1.129-0.131
				c-0.535,0-0.99,0.084-1.367,0.258c-0.379,0.172-0.664,0.402-0.859,0.691c-0.193,0.289-0.291,0.596-0.291,0.92
				c0,0.363,0.105,0.67,0.316,0.92c0.209,0.25,0.488,0.451,0.838,0.603c0.352,0.15,0.805,0.297,1.363,0.434
				c0.494,0.121,0.848,0.244,1.064,0.375c0.217,0.131,0.324,0.338,0.324,0.623c0,0.186-0.104,0.352-0.312,0.496
				c-0.207,0.145-0.473,0.217-0.797,0.217c-0.4,0-0.715-0.07-0.947-0.213c-0.23-0.145-0.432-0.357-0.598-0.648
				c-0.08-0.148-0.168-0.266-0.26-0.35c-0.092-0.082-0.221-0.125-0.391-0.125c-0.195,0-0.355,0.064-0.48,0.191
				c-0.129,0.125-0.191,0.277-0.191,0.455c0,0.27,0.1,0.537,0.297,0.805c0.197,0.268,0.504,0.49,0.92,0.668
				c0.416,0.178,0.914,0.268,1.496,0.268c0.607,0,1.125-0.082,1.551-0.246c0.426-0.164,0.748-0.406,0.965-0.725
				c0.219-0.318,0.326-0.701,0.326-1.148c0-0.297-0.082-0.56-0.246-0.793C194.44,477.988,194.198,477.787,193.88,477.617z"/>
			<path id="XMLID_54_" style="fill:#4A4A4A;" d="M196.487,474.543c-0.236,0-0.43,0.08-0.578,0.242
				c-0.148,0.162-0.223,0.404-0.223,0.725v4.635c0,0.316,0.074,0.561,0.223,0.73c0.148,0.17,0.342,0.256,0.578,0.256
				c0.238,0,0.434-0.084,0.588-0.25c0.154-0.166,0.232-0.412,0.232-0.736v-4.682c0-0.289-0.078-0.516-0.232-0.678
				C196.921,474.623,196.726,474.543,196.487,474.543z"/>
			<path id="XMLID_53_" style="fill:#4A4A4A;" d="M196.507,472.203c-0.219,0-0.41,0.074-0.574,0.223
				c-0.164,0.15-0.246,0.338-0.246,0.568c0,0.254,0.08,0.449,0.24,0.588c0.16,0.137,0.354,0.207,0.58,0.207
				c0.217,0,0.406-0.07,0.563-0.211c0.158-0.141,0.238-0.336,0.238-0.584c0-0.258-0.082-0.453-0.244-0.588
				C196.901,472.272,196.716,472.203,196.507,472.203z"/>
			<path id="XMLID_50_" style="fill:#4A4A4A;" d="M203.628,474.543c-0.217,0-0.396,0.076-0.535,0.23
				c-0.139,0.154-0.207,0.373-0.207,0.652v0.221c-0.289-0.375-0.602-0.65-0.938-0.828c-0.338-0.176-0.734-0.264-1.193-0.264
				c-0.383,0-0.736,0.068-1.057,0.203c-0.32,0.139-0.604,0.34-0.85,0.609c-0.244,0.27-0.432,0.6-0.566,0.992
				c-0.133,0.391-0.197,0.83-0.197,1.316c0,0.654,0.107,1.228,0.328,1.728c0.215,0.498,0.527,0.885,0.932,1.162
				c0.406,0.277,0.881,0.416,1.422,0.416c0.451,0,0.84-0.092,1.166-0.273c0.326-0.182,0.613-0.447,0.863-0.797
				c-0.008,0.531-0.02,0.916-0.035,1.156c-0.016,0.24-0.07,0.465-0.164,0.674c-0.092,0.209-0.254,0.373-0.486,0.488
				c-0.23,0.117-0.557,0.176-0.977,0.176c-0.205,0-0.387-0.02-0.545-0.057c-0.158-0.037-0.295-0.094-0.406-0.17
				c-0.113-0.078-0.217-0.172-0.309-0.281c-0.094-0.107-0.184-0.217-0.27-0.322c-0.18-0.211-0.387-0.315-0.625-0.315
				c-0.189,0-0.352,0.061-0.486,0.188c-0.135,0.123-0.201,0.283-0.201,0.482c0,0.262,0.121,0.516,0.355,0.764
				c0.238,0.246,0.576,0.447,1.016,0.605c0.439,0.154,0.938,0.232,1.496,0.232c0.607,0,1.119-0.061,1.527-0.184
				c0.41-0.121,0.74-0.311,0.994-0.563c0.254-0.254,0.438-0.574,0.551-0.961c0.115-0.389,0.174-0.852,0.174-1.391v-4.705
				c0-0.385-0.051-0.678-0.156-0.883C204.147,474.645,203.94,474.543,203.628,474.543z M202.601,478.908
				c-0.15,0.291-0.346,0.508-0.586,0.652c-0.238,0.145-0.492,0.217-0.762,0.217c-0.455,0-0.826-0.168-1.111-0.504
				c-0.287-0.336-0.432-0.834-0.432-1.49c0-0.648,0.139-1.15,0.418-1.502c0.279-0.352,0.65-0.527,1.113-0.527
				c0.475,0,0.857,0.184,1.148,0.553c0.291,0.367,0.438,0.881,0.438,1.541C202.827,478.264,202.751,478.617,202.601,478.908z"/>
			<path id="XMLID_49_" style="fill:#4A4A4A;" d="M210.979,475.609c-0.164-0.338-0.416-0.602-0.752-0.787
				c-0.336-0.188-0.719-0.279-1.146-0.279c-0.439,0-0.826,0.088-1.166,0.264c-0.338,0.176-0.65,0.451-0.934,0.828v-0.195
				c0-0.193-0.035-0.359-0.104-0.494c-0.07-0.133-0.162-0.234-0.277-0.301c-0.115-0.068-0.242-0.102-0.387-0.102
				c-0.232,0-0.416,0.076-0.551,0.229c-0.135,0.152-0.201,0.383-0.201,0.691v4.682c0,0.316,0.076,0.561,0.225,0.73
				c0.15,0.17,0.342,0.256,0.576,0.256c0.24,0,0.439-0.082,0.59-0.246c0.152-0.164,0.229-0.412,0.229-0.74v-2.029
				c0-0.66,0.041-1.111,0.119-1.354c0.111-0.299,0.285-0.537,0.521-0.709c0.238-0.172,0.5-0.258,0.789-0.258
				c0.443,0,0.74,0.143,0.889,0.424c0.148,0.283,0.223,0.691,0.223,1.227v2.699c0,0.316,0.074,0.561,0.227,0.73
				c0.15,0.17,0.346,0.256,0.586,0.256c0.238,0,0.432-0.084,0.578-0.25c0.15-0.166,0.225-0.412,0.225-0.736v-3.016
				c0-0.355-0.018-0.647-0.049-0.877C211.157,476.023,211.087,475.809,210.979,475.609z"/>
			<path id="XMLID_46_" style="fill:#4A4A4A;" d="M217.823,478.053c0.234-0.121,0.352-0.385,0.352-0.793
				c0-0.438-0.113-0.869-0.34-1.293c-0.225-0.424-0.565-0.77-1.018-1.035c-0.453-0.268-0.996-0.4-1.629-0.4
				c-0.486,0-0.93,0.078-1.33,0.234c-0.398,0.156-0.734,0.381-1.008,0.674c-0.274,0.293-0.48,0.642-0.623,1.053
				c-0.142,0.41-0.215,0.854-0.215,1.332c0,1.018,0.289,1.822,0.867,2.416c0.578,0.592,1.387,0.891,2.428,0.891
				c0.455,0,0.857-0.061,1.207-0.178c0.352-0.121,0.641-0.268,0.873-0.449c0.23-0.18,0.404-0.367,0.518-0.564
				c0.115-0.195,0.174-0.365,0.174-0.514c0-0.166-0.051-0.293-0.154-0.385c-0.104-0.09-0.238-0.137-0.404-0.137
				c-0.154,0-0.273,0.035-0.355,0.107c-0.201,0.19-0.367,0.34-0.492,0.451c-0.127,0.111-0.268,0.215-0.416,0.313
				c-0.15,0.098-0.307,0.166-0.465,0.213c-0.162,0.045-0.338,0.068-0.533,0.068c-0.287,0-0.553-0.07-0.791-0.213
				c-0.24-0.143-0.432-0.355-0.576-0.637c-0.145-0.281-0.219-0.605-0.223-0.973h3.17
				C217.263,478.234,217.591,478.174,217.823,478.053z M213.669,477.315c0.057-0.547,0.213-0.959,0.471-1.238
				c0.26-0.279,0.592-0.418,0.996-0.418c0.422,0,0.764,0.137,1.023,0.412c0.258,0.275,0.408,0.689,0.447,1.244H213.669z"/>
			<path id="XMLID_43_" style="fill:#4A4A4A;" d="M224.21,472.133c-0.246,0-0.436,0.086-0.568,0.256
				c-0.131,0.17-0.199,0.42-0.199,0.752v2.393c-0.305-0.332-0.615-0.578-0.938-0.738c-0.32-0.16-0.713-0.24-1.18-0.24
				c-0.809,0-1.459,0.283-1.953,0.848c-0.494,0.566-0.742,1.355-0.742,2.369c0,0.478,0.063,0.924,0.188,1.336
				c0.125,0.412,0.307,0.77,0.549,1.074c0.242,0.305,0.527,0.539,0.857,0.703c0.33,0.164,0.69,0.246,1.076,0.246
				c0.295,0,0.564-0.041,0.811-0.123c0.248-0.08,0.477-0.199,0.689-0.355c0.211-0.156,0.426-0.359,0.643-0.607v0.16
				c0,0.297,0.072,0.525,0.217,0.685c0.145,0.16,0.328,0.24,0.551,0.24c0.225,0,0.408-0.078,0.551-0.232
				c0.143-0.154,0.213-0.385,0.213-0.693v-7.147c0-0.305-0.064-0.535-0.197-0.691C224.644,472.211,224.454,472.133,224.21,472.133z
				 M223.144,478.975c-0.141,0.305-0.328,0.533-0.564,0.682c-0.234,0.148-0.494,0.223-0.779,0.223c-0.283,0-0.541-0.078-0.777-0.236
				c-0.238-0.154-0.426-0.387-0.561-0.695c-0.137-0.311-0.207-0.684-0.207-1.123c0-0.414,0.064-0.779,0.193-1.096
				c0.129-0.314,0.311-0.555,0.543-0.723c0.234-0.168,0.5-0.252,0.797-0.252c0.283,0,0.547,0.082,0.785,0.244
				c0.24,0.166,0.43,0.404,0.57,0.713c0.141,0.311,0.209,0.682,0.209,1.113C223.352,478.283,223.284,478.666,223.144,478.975z"/>
			<path id="XMLID_40_" style="fill:#4A4A4A;" d="M233.587,474.938c-0.406-0.256-0.877-0.383-1.416-0.383
				c-0.467,0-0.857,0.084-1.174,0.252c-0.316,0.168-0.627,0.412-0.932,0.727v-2.475c0-0.297-0.068-0.525-0.201-0.686
				c-0.135-0.16-0.326-0.24-0.576-0.24c-0.238,0-0.424,0.086-0.555,0.252c-0.133,0.168-0.199,0.416-0.199,0.744v7.076
				c0,0.305,0.066,0.535,0.203,0.691c0.137,0.156,0.32,0.234,0.551,0.234c0.225,0,0.412-0.078,0.557-0.234
				c0.146-0.156,0.221-0.387,0.221-0.691v-0.16c0.178,0.205,0.322,0.359,0.43,0.463c0.109,0.103,0.242,0.203,0.395,0.299
				c0.154,0.098,0.342,0.176,0.561,0.234c0.219,0.061,0.453,0.09,0.703,0.09c0.408,0,0.781-0.082,1.119-0.246
				c0.338-0.164,0.625-0.398,0.863-0.699c0.238-0.299,0.418-0.654,0.543-1.064c0.125-0.41,0.188-0.859,0.188-1.35
				c0-0.664-0.111-1.24-0.336-1.725C234.306,475.563,233.993,475.193,233.587,474.938z M232.798,479.348
				c-0.295,0.354-0.646,0.531-1.053,0.531c-0.478,0-0.865-0.174-1.16-0.522c-0.297-0.346-0.441-0.84-0.441-1.486
				c0-0.439,0.068-0.818,0.207-1.135c0.137-0.32,0.328-0.563,0.568-0.73c0.242-0.168,0.518-0.252,0.826-0.252
				c0.299,0,0.563,0.084,0.789,0.252c0.225,0.168,0.398,0.406,0.521,0.715c0.123,0.309,0.184,0.678,0.184,1.103
				C233.239,478.486,233.091,478.992,232.798,479.348z"/>
			<path id="XMLID_39_" style="fill:#4A4A4A;" d="M240.53,474.641c-0.111-0.066-0.229-0.098-0.354-0.098
				c-0.17,0-0.303,0.029-0.395,0.09c-0.092,0.057-0.18,0.172-0.264,0.344c-0.082,0.17-0.176,0.406-0.279,0.705l-1.299,3.709
				l-1.371-3.988c-0.092-0.277-0.195-0.488-0.314-0.637c-0.119-0.148-0.295-0.223-0.529-0.223c-0.135,0-0.264,0.035-0.389,0.107
				c-0.125,0.07-0.223,0.166-0.293,0.285c-0.072,0.117-0.107,0.246-0.107,0.385c0,0.131,0.061,0.34,0.184,0.629l1.994,5.022
				l-0.148,0.361c-0.109,0.266-0.207,0.467-0.293,0.602c-0.086,0.139-0.182,0.234-0.287,0.289c-0.107,0.055-0.254,0.084-0.441,0.084
				c-0.074,0-0.162-0.014-0.266-0.037c-0.082-0.023-0.168-0.035-0.256-0.035c-0.221,0-0.389,0.051-0.5,0.15
				c-0.113,0.102-0.17,0.246-0.17,0.432c0,0.271,0.119,0.461,0.355,0.564c0.238,0.102,0.594,0.152,1.068,0.152
				c0.486,0,0.873-0.072,1.16-0.223c0.287-0.146,0.518-0.361,0.691-0.637c0.174-0.277,0.354-0.66,0.535-1.146l2.113-5.531
				c0.051-0.143,0.094-0.283,0.129-0.42c0.037-0.141,0.063-0.246,0.078-0.322c0-0.123-0.031-0.238-0.092-0.35
				C240.731,474.793,240.644,474.705,240.53,474.641z"/>
		</g>
		<g id="XMLID_2_">
			<g id="XMLID_17_">
				<path id="XMLID_37_" style="fill:#4A4A4A;" d="M262.933,472.129c-0.533,0-0.955,0.068-1.262,0.203
					c-0.307,0.137-0.525,0.355-0.654,0.652c-0.129,0.301-0.19,0.703-0.19,1.211v0.488h-0.389c-0.541,0-0.815,0.191-0.815,0.582
					c0,0.174,0.065,0.315,0.197,0.422c0.133,0.111,0.314,0.164,0.559,0.164h0.447v4.295c0,0.318,0.074,0.563,0.225,0.728
					c0.156,0.17,0.346,0.254,0.576,0.254c0.242,0,0.438-0.084,0.588-0.254c0.156-0.166,0.23-0.41,0.23-0.728v-4.295h0.397
					c0.291,0,0.516-0.035,0.678-0.107c0.168-0.07,0.248-0.24,0.248-0.502c0-0.373-0.307-0.559-0.926-0.559h-0.397v-0.387
					c0-0.322,0.041-0.568,0.123-0.74c0.084-0.172,0.273-0.26,0.564-0.26c0.107,0,0.24,0.014,0.391,0.035
					c0.154,0.025,0.268,0.037,0.328,0.037c0.133,0,0.252-0.055,0.35-0.16c0.102-0.107,0.15-0.234,0.15-0.385
					C264.353,472.357,263.882,472.129,262.933,472.129z"/>
				<path id="XMLID_36_" style="fill:#4A4A4A;" d="M268.091,474.795c-0.322-0.172-0.646-0.256-0.99-0.256
					c-0.342,0-0.609,0.084-0.818,0.256c-0.201,0.17-0.4,0.42-0.594,0.754c-0.012-0.334-0.078-0.584-0.197-0.754
					c-0.119-0.172-0.313-0.256-0.582-0.256c-0.525,0-0.789,0.365-0.789,1.094v4.514c0,0.322,0.078,0.568,0.227,0.732
					c0.148,0.168,0.338,0.25,0.578,0.25c0.236,0,0.43-0.08,0.586-0.246c0.15-0.164,0.234-0.41,0.234-0.736v-1.356
					c0-0.486,0.014-0.9,0.043-1.238c0.033-0.338,0.092-0.631,0.17-0.879c0.084-0.242,0.203-0.424,0.353-0.553
					c0.15-0.123,0.344-0.186,0.582-0.186c0.172,0,0.375,0.035,0.602,0.108c0.225,0.072,0.371,0.111,0.434,0.111
					c0.158,0,0.305-0.063,0.441-0.193c0.133-0.127,0.201-0.293,0.201-0.488C268.571,475.191,268.413,474.965,268.091,474.795z"/>
				<path id="XMLID_33_" style="fill:#4A4A4A;" d="M274.179,478.051c0.232-0.121,0.35-0.385,0.35-0.791
					c0-0.439-0.111-0.869-0.34-1.295c-0.221-0.424-0.565-0.77-1.018-1.033c-0.451-0.27-0.996-0.404-1.629-0.404
					c-0.486,0-0.93,0.078-1.328,0.232c-0.402,0.158-0.734,0.381-1.01,0.676c-0.273,0.295-0.484,0.643-0.621,1.055
					c-0.147,0.41-0.219,0.854-0.219,1.332c0,1.018,0.291,1.824,0.869,2.418c0.578,0.594,1.387,0.889,2.43,0.889
					c0.453,0,0.857-0.061,1.207-0.178c0.35-0.117,0.641-0.27,0.875-0.447c0.232-0.182,0.404-0.367,0.522-0.566
					c0.111-0.193,0.166-0.365,0.166-0.512c0-0.166-0.049-0.293-0.152-0.385c-0.104-0.094-0.238-0.139-0.406-0.139
					c-0.152,0-0.27,0.037-0.353,0.107c-0.203,0.189-0.367,0.34-0.494,0.449c-0.127,0.113-0.264,0.219-0.414,0.313
					c-0.15,0.098-0.309,0.17-0.467,0.213c-0.16,0.049-0.336,0.07-0.531,0.07c-0.289,0-0.551-0.07-0.793-0.213
					c-0.238-0.145-0.43-0.355-0.576-0.635c-0.145-0.281-0.217-0.607-0.225-0.975h3.174
					C273.618,478.232,273.944,478.172,274.179,478.051z M270.021,477.313c0.057-0.547,0.213-0.957,0.475-1.236
					c0.26-0.281,0.592-0.418,0.992-0.418c0.428,0,0.764,0.135,1.027,0.412c0.26,0.273,0.404,0.688,0.445,1.242H270.021z"/>
				<path id="XMLID_30_" style="fill:#4A4A4A;" d="M280.919,478.051c0.233-0.121,0.352-0.385,0.352-0.791
					c0-0.439-0.115-0.869-0.34-1.295c-0.221-0.424-0.563-0.77-1.012-1.033c-0.463-0.27-1.006-0.404-1.637-0.404
					c-0.486,0-0.932,0.078-1.33,0.232c-0.4,0.158-0.736,0.381-1.008,0.676c-0.273,0.295-0.48,0.643-0.623,1.055
					c-0.145,0.41-0.217,0.854-0.217,1.332c0,1.018,0.291,1.824,0.867,2.418c0.58,0.594,1.387,0.889,2.43,0.889
					c0.451,0,0.859-0.061,1.211-0.178c0.348-0.117,0.639-0.27,0.871-0.447c0.234-0.182,0.406-0.367,0.518-0.566
					c0.117-0.193,0.172-0.365,0.172-0.512c0-0.166-0.047-0.293-0.15-0.385c-0.104-0.094-0.238-0.139-0.406-0.139
					c-0.15,0-0.27,0.037-0.355,0.107c-0.201,0.189-0.367,0.34-0.492,0.449c-0.129,0.113-0.264,0.219-0.416,0.313
					c-0.152,0.098-0.307,0.17-0.469,0.213c-0.158,0.049-0.336,0.07-0.529,0.07c-0.289,0-0.555-0.07-0.793-0.213
					c-0.24-0.145-0.432-0.355-0.576-0.635c-0.143-0.281-0.217-0.607-0.221-0.975h3.172
					C280.356,478.232,280.686,478.172,280.919,478.051z M276.765,477.313c0.053-0.547,0.211-0.957,0.469-1.236
					c0.262-0.281,0.592-0.418,0.996-0.418c0.424,0,0.764,0.135,1.025,0.412c0.26,0.273,0.41,0.688,0.449,1.242H276.765z"/>
				<path id="XMLID_27_" style="fill:#4A4A4A;" d="M286.931,474.938c-0.42-0.258-0.883-0.387-1.379-0.387
					c-0.414,0-0.789,0.09-1.113,0.268c-0.332,0.176-0.648,0.451-0.953,0.826v-0.193c0-0.297-0.07-0.52-0.217-0.678
					c-0.145-0.156-0.33-0.234-0.563-0.234c-0.232,0-0.416,0.078-0.551,0.229c-0.133,0.154-0.199,0.381-0.199,0.691v6.994
					c0,0.355,0.049,0.621,0.145,0.807c0.102,0.184,0.301,0.275,0.605,0.275c0.518,0,0.779-0.359,0.779-1.068v-2.434
					c0.285,0.357,0.586,0.635,0.9,0.816c0.315,0.188,0.703,0.279,1.166,0.279c0.385,0,0.742-0.076,1.08-0.227
					c0.334-0.152,0.621-0.373,0.867-0.654c0.246-0.283,0.44-0.631,0.58-1.049c0.141-0.418,0.211-0.879,0.211-1.377
					c0-0.676-0.123-1.26-0.369-1.758C287.681,475.57,287.351,475.195,286.931,474.938z M286.454,478.94
					c-0.137,0.313-0.32,0.547-0.551,0.705c-0.23,0.152-0.482,0.233-0.748,0.233c-0.455,0-0.828-0.18-1.133-0.537
					c-0.307-0.357-0.461-0.861-0.461-1.504c0-0.686,0.156-1.203,0.461-1.557c0.309-0.35,0.684-0.527,1.133-0.527
					c0.281,0,0.539,0.082,0.768,0.246c0.23,0.164,0.412,0.399,0.543,0.705c0.131,0.307,0.197,0.674,0.197,1.102
					C286.663,478.248,286.593,478.627,286.454,478.94z"/>
				<path id="XMLID_26_" style="fill:#4A4A4A;" d="M289.903,474.539c-0.236,0-0.426,0.08-0.58,0.244
					c-0.145,0.164-0.221,0.404-0.221,0.723v4.641c0,0.313,0.076,0.555,0.221,0.728c0.154,0.17,0.344,0.254,0.58,0.254
					c0.24,0,0.432-0.082,0.59-0.25c0.154-0.164,0.228-0.41,0.228-0.732v-4.688c0-0.287-0.074-0.512-0.228-0.676
					C290.335,474.619,290.144,474.539,289.903,474.539z"/>
				<path id="XMLID_25_" style="fill:#4A4A4A;" d="M289.921,472.199c-0.217,0-0.406,0.076-0.57,0.223
					c-0.166,0.148-0.248,0.338-0.248,0.568c0,0.252,0.08,0.447,0.242,0.586c0.158,0.137,0.35,0.209,0.576,0.209
					c0.219,0,0.408-0.072,0.566-0.211s0.234-0.334,0.234-0.584c0-0.258-0.082-0.455-0.242-0.592
					C290.319,472.266,290.134,472.199,289.921,472.199z"/>
				<path id="XMLID_24_" style="fill:#4A4A4A;" d="M297.263,479.568l-1.662-2.613l0.859-0.789c0.439-0.394,0.66-0.713,0.66-0.951
					c0-0.191-0.068-0.354-0.201-0.482c-0.137-0.129-0.305-0.193-0.508-0.193c-0.172,0-0.313,0.043-0.432,0.131
					c-0.123,0.086-0.293,0.25-0.518,0.486l-1.824,1.912v-3.932c0-0.33-0.072-0.582-0.219-0.752c-0.148-0.17-0.346-0.256-0.592-0.256
					c-0.256,0-0.457,0.092-0.596,0.283c-0.137,0.188-0.209,0.461-0.209,0.82v6.914c0,0.322,0.074,0.568,0.217,0.732
					c0.141,0.168,0.338,0.25,0.588,0.25c0.213,0,0.404-0.084,0.566-0.254c0.164-0.166,0.244-0.406,0.244-0.719v-1.289l0.881-0.83
					l1.43,2.352c0.182,0.279,0.328,0.473,0.436,0.58c0.104,0.109,0.26,0.16,0.459,0.16c0.225,0,0.41-0.072,0.553-0.221
					c0.141-0.15,0.211-0.352,0.211-0.609c0-0.09-0.027-0.189-0.08-0.289C297.474,479.908,297.384,479.764,297.263,479.568z"/>
				<path id="XMLID_23_" style="fill:#4A4A4A;" d="M299.454,479.342c-0.25,0-0.459,0.088-0.631,0.262
					c-0.17,0.174-0.256,0.381-0.256,0.623c0,0.287,0.09,0.51,0.268,0.664c0.18,0.16,0.389,0.238,0.635,0.238
					c0.236,0,0.443-0.078,0.623-0.24c0.176-0.158,0.262-0.381,0.262-0.662c0-0.244-0.086-0.455-0.262-0.627
					C299.913,479.43,299.702,479.342,299.454,479.342z"/>
				<path id="XMLID_22_" style="fill:#4A4A4A;" d="M306.837,478.416c-0.164,0-0.305,0.055-0.42,0.156
					c-0.115,0.104-0.219,0.244-0.318,0.426c-0.178,0.311-0.381,0.539-0.615,0.69c-0.232,0.15-0.51,0.225-0.834,0.225
					c-0.242,0-0.463-0.045-0.666-0.141c-0.201-0.094-0.373-0.229-0.516-0.408c-0.145-0.18-0.252-0.398-0.328-0.652
					c-0.072-0.256-0.111-0.537-0.111-0.842c0-0.646,0.145-1.162,0.44-1.533c0.293-0.375,0.682-0.563,1.156-0.563
					c0.332,0,0.607,0.076,0.822,0.227c0.219,0.148,0.424,0.377,0.623,0.674c0.107,0.158,0.209,0.27,0.299,0.34
					c0.088,0.068,0.201,0.103,0.338,0.103c0.201,0,0.377-0.068,0.523-0.203c0.145-0.135,0.215-0.299,0.215-0.49
					c0-0.193-0.063-0.398-0.193-0.617c-0.127-0.219-0.315-0.424-0.555-0.621c-0.246-0.191-0.541-0.351-0.891-0.473
					c-0.354-0.125-0.736-0.186-1.156-0.186c-0.676,0-1.26,0.139-1.748,0.42c-0.484,0.277-0.858,0.672-1.113,1.182
					c-0.258,0.512-0.387,1.098-0.387,1.766c0,0.98,0.281,1.764,0.842,2.35c0.563,0.582,1.344,0.875,2.346,0.875
					c0.471,0,0.896-0.064,1.271-0.191c0.375-0.125,0.688-0.295,0.934-0.502c0.246-0.207,0.434-0.426,0.553-0.656
					c0.123-0.229,0.184-0.445,0.184-0.647c0-0.168-0.066-0.33-0.199-0.48C307.202,478.492,307.038,478.416,306.837,478.416z"/>
				<path id="XMLID_19_" style="fill:#4A4A4A;" d="M313.651,475.453c-0.289-0.291-0.629-0.518-1.027-0.676
					c-0.402-0.16-0.846-0.238-1.336-0.238c-0.482,0-0.924,0.078-1.326,0.234c-0.398,0.158-0.738,0.379-1.021,0.668
					c-0.279,0.289-0.496,0.637-0.647,1.045c-0.146,0.408-0.225,0.858-0.225,1.35c0,0.484,0.076,0.93,0.221,1.332
					c0.148,0.4,0.367,0.75,0.656,1.047c0.285,0.293,0.625,0.521,1.016,0.676c0.393,0.16,0.836,0.24,1.326,0.24
					c0.492,0,0.936-0.08,1.336-0.234c0.395-0.158,0.736-0.383,1.02-0.676c0.287-0.291,0.502-0.641,0.656-1.049
					c0.146-0.408,0.223-0.855,0.223-1.336c0-0.488-0.076-0.932-0.221-1.34C314.153,476.096,313.936,475.748,313.651,475.453z
					 M312.46,479.367c-0.291,0.373-0.682,0.559-1.172,0.559c-0.324,0-0.603-0.086-0.848-0.254c-0.238-0.168-0.422-0.408-0.551-0.729
					c-0.129-0.316-0.193-0.684-0.193-1.107c0-0.428,0.066-0.803,0.197-1.125c0.129-0.32,0.313-0.563,0.555-0.727
					c0.242-0.164,0.522-0.246,0.84-0.246c0.49,0,0.881,0.182,1.172,0.555c0.289,0.367,0.435,0.881,0.435,1.543
					C312.895,478.486,312.749,478.998,312.46,479.367z"/>
				<path id="XMLID_18_" style="fill:#4A4A4A;" d="M323.571,474.813c-0.318-0.172-0.703-0.262-1.145-0.262
					c-0.379,0-0.725,0.08-1.037,0.24c-0.316,0.162-0.607,0.408-0.885,0.738c-0.189-0.326-0.428-0.572-0.723-0.734
					c-0.293-0.162-0.643-0.244-1.047-0.244c-0.395,0-0.748,0.078-1.07,0.24c-0.32,0.156-0.621,0.404-0.904,0.738v-0.152
					c0-0.262-0.074-0.467-0.221-0.617c-0.15-0.145-0.334-0.221-0.557-0.221c-0.227,0-0.412,0.078-0.557,0.238
					c-0.139,0.158-0.209,0.389-0.209,0.695v4.635c0,0.338,0.078,0.592,0.234,0.766c0.154,0.17,0.358,0.258,0.605,0.258
					c0.248,0,0.447-0.088,0.6-0.258c0.152-0.174,0.228-0.428,0.228-0.766v-2.188c0-0.684,0.084-1.207,0.252-1.566
					c0.168-0.369,0.518-0.551,1.049-0.551c0.264,0,0.459,0.072,0.582,0.221c0.121,0.141,0.197,0.33,0.227,0.551
					c0.027,0.227,0.039,0.545,0.039,0.953v2.58c0,0.342,0.078,0.594,0.232,0.768c0.148,0.17,0.35,0.256,0.596,0.256
					c0.254,0,0.453-0.086,0.607-0.256c0.158-0.174,0.232-0.426,0.232-0.768v-2.152c0-0.695,0.063-1.178,0.178-1.453
					c0.107-0.209,0.258-0.383,0.451-0.508c0.191-0.125,0.393-0.191,0.607-0.191c0.266,0,0.465,0.072,0.598,0.215
					c0.127,0.143,0.209,0.318,0.238,0.529c0.027,0.209,0.043,0.486,0.043,0.836v2.725c0,0.338,0.078,0.592,0.234,0.766
					c0.158,0.17,0.355,0.258,0.604,0.258c0.252,0,0.459-0.086,0.611-0.256c0.154-0.174,0.23-0.426,0.23-0.768v-3.162
					c0-0.629-0.068-1.092-0.207-1.387C324.132,475.236,323.894,474.986,323.571,474.813z"/>
			</g>
			<g id="XMLID_3_">
				<path id="XMLID_16_" style="fill:#4A4A4A;" d="M245.274,477.443c-0.002-0.004-0.002-0.006-0.002-0.006
					S245.272,477.44,245.274,477.443z"/>
				<path id="XMLID_15_" style="fill:#4A4A4A;" d="M245.356,477.961L245.356,477.961c-0.029-0.146-0.055-0.295-0.072-0.438
					C245.302,477.668,245.327,477.816,245.356,477.961z"/>
				<path id="XMLID_14_" style="fill:#4A4A4A;" d="M245.892,479.465c-0.002-0.006-0.006-0.014-0.01-0.021
					C245.886,479.451,245.89,479.459,245.892,479.465z"/>
				<path id="XMLID_13_" style="fill:#4A4A4A;" d="M245.841,479.365c-0.014-0.027-0.027-0.057-0.041-0.084
					C245.813,479.31,245.827,479.338,245.841,479.365z"/>
				<path id="XMLID_12_" style="fill:#4A4A4A;" d="M245.507,478.541c0.08,0.25,0.176,0.492,0.285,0.723
					c-0.113-0.236-0.205-0.479-0.283-0.723H245.507z"/>
				<path id="XMLID_11_" style="fill:#4A4A4A;" d="M250.737,470.682l-0.076-0.26c0.299-0.063,0.524-0.33,0.524-0.647
					c0-0.363-0.297-0.66-0.66-0.66c-0.365,0-0.66,0.297-0.66,0.66c0,0.316,0.225,0.584,0.523,0.647l0.084,0.289
					c-1.021,0.141-1.834,0.539-1.834,0.539l0.143,0.44c0.617-0.205,1.154-0.33,1.641-0.383c0.475-0.051,0.834-0.072,1.127-0.072
					c0.313,0,0.545,0.025,0.807,0.068l0.078-0.475C252.433,470.828,251.7,470.602,250.737,470.682z"/>
				<path id="XMLID_10_" style="fill:#4A4A4A;" d="M245.454,473.188c-0.018,0.023-0.496,0.465-0.875,1.281
					c-0.016-0.027-0.035-0.053-0.057-0.076c-0.113-0.123-0.273-0.188-0.473-0.184h-0.01c-0.125,0-0.211-0.041-0.268-0.092
					c0.057-0.07,0.09-0.16,0.09-0.258c0-0.23-0.188-0.42-0.418-0.42c-0.23,0-0.418,0.189-0.418,0.42c0,0.23,0.188,0.416,0.418,0.416
					c0.035,0,0.07-0.004,0.104-0.012c0.104,0.113,0.266,0.215,0.504,0.209c0.125-0.002,0.215,0.031,0.273,0.098
					c0.07,0.074,0.094,0.184,0.102,0.266l-0.002,0.004c-0.273,0.744-0.195,1.668-0.195,1.668l0.66,0.025
					c0.014-0.336,0.063-0.924,0.233-1.393c0.33-0.906,0.742-1.471,0.758-1.496l0.004-0.004c0.023-0.031,0.047-0.06,0.07-0.09
					l-0.195-0.141L245.454,473.188z"/>
				<path id="XMLID_9_" style="fill:#4A4A4A;" d="M257.296,471.787c-0.23,0-0.418,0.186-0.418,0.416
					c0,0.037,0.006,0.072,0.016,0.105c-0.115,0.104-0.215,0.266-0.211,0.506c0.002,0.123-0.031,0.213-0.098,0.273
					c-0.053,0.047-0.119,0.07-0.184,0.086c-0.492-0.688-1.098-1.109-1.098-1.109l-0.475,0.51c0.359,0.326,0.723,0.734,1.08,1.244
					c0.244,0.352,0.5,0.805,0.711,1.258l0.639-0.305c0,0-0.291-0.721-0.703-1.369c0.072-0.025,0.142-0.063,0.207-0.119
					c0.125-0.113,0.188-0.273,0.184-0.475c-0.002-0.129,0.039-0.217,0.092-0.275c0.072,0.055,0.16,0.09,0.258,0.09
					c0.232,0,0.418-0.188,0.418-0.42C257.714,471.973,257.528,471.787,257.296,471.787z"/>
				<path id="XMLID_8_" style="fill:#4A4A4A;" d="M255.636,477.537c-0.881,0.428-2.332,0.996-4.236,1.262
					c-0.752,0.104-1.477,0.143-2.145,0.143c-0.869,0-1.637-0.064-2.227-0.141c-0.672-0.082-1.197-0.188-1.52-0.26
					c0.078,0.244,0.17,0.486,0.283,0.723c0,0,0.006,0.014,0.008,0.018c0.014,0.027,0.027,0.057,0.041,0.084
					c0.014,0.027,0.027,0.055,0.041,0.078c0.004,0.008,0.008,0.016,0.01,0.021c0.19,0.357,0.418,0.684,0.676,0.969
					c0.9,0.984,1.816,1.139,1.826,1.141l0.014,0.002l0.014,0.004c0.008,0.004,0.82,0.266,2.057,0.266
					c1.217,0,2.41-0.244,3.547-0.729c0.842-0.432,1.639-1.086,2.033-1.668c0.305-0.453,0.525-0.934,0.656-1.434
					c0.068-0.266,0.121-0.693,0.09-1.141C256.558,477.041,256.165,477.279,255.636,477.537z"/>
				<path id="XMLID_4_" style="fill:#4A4A4A;" d="M252.325,471.654c-0.266-0.043-0.477-0.068-0.777-0.068
					c-0.279,0-0.627,0.023-1.09,0.07c-0.465,0.049-0.982,0.172-1.584,0.373c-0.842,0.283-1.604,0.725-2.203,1.281l-0.02,0.018
					c-0.09,0.082-0.275,0.254-0.488,0.525c-0.025,0.037-0.408,0.578-0.709,1.408c-0.227,0.621-0.217,1.527-0.217,1.537v0.002
					c0,0.211,0.012,0.422,0.035,0.631c0,0,0,0.008,0.002,0.012c0.002,0.027,0.008,0.053,0.01,0.08
					c0.018,0.143,0.043,0.291,0.074,0.438c0.438,0.111,3.047,0.721,5.967,0.314c1.828-0.254,3.217-0.795,4.059-1.205
					c0.703-0.34,1.154-0.647,1.328-0.773c-0.174-0.643-0.652-1.65-1.09-2.277C254.37,472.228,253.017,471.77,252.325,471.654z
					 M248.681,476.914c-0.973,0-1.76-0.787-1.76-1.76c0-0.973,0.787-1.76,1.76-1.76c0.973,0,1.76,0.787,1.76,1.76
					C250.44,476.127,249.653,476.914,248.681,476.914z M253.831,475.617c-0.602,0-1.088-0.49-1.088-1.09
					c0-0.604,0.486-1.09,1.088-1.09c0.6,0,1.088,0.486,1.088,1.09C254.919,475.127,254.431,475.617,253.831,475.617z"/>
			</g>
		</g>
	</g>
</g>
</svg>
